ModelForces
version=1
nRows=4
nColumns=157
inDegrees=no

This file contains the forces exerted on a model during a simulation.

A force is a generalized force, meaning that it can be either a force (N) or a torque (Nm).

Units are S.I. units (second, meters, Newtons, ...)
Angles are in degrees.

endheader
time	glut_med1_r	glut_med2_r	glut_med3_r	glut_min1_r	glut_min2_r	glut_min3_r	semimem_r	semiten_r	bifemlh_r	bifemsh_r	sar_r	add_long_r	add_brev_r	add_mag1_r	add_mag2_r	add_mag3_r	tfl_r	pect_r	grac_r	glut_max1_r	glut_max2_r	glut_max3_r	iliacus_r	psoas_r	quad_fem_r	gem_r	peri_r	rect_fem_r	vas_med_r	vas_int_r	vas_lat_r	med_gas_r	lat_gas_r	soleus_r	tib_post_r	flex_dig_r	flex_hal_r	tib_ant_r	per_brev_r	per_long_r	per_tert_r	ext_dig_r	ext_hal_r	glut_med1_l	glut_med2_l	glut_med3_l	glut_min1_l	glut_min2_l	glut_min3_l	semimem_l	semiten_l	bifemlh_l	bifemsh_l	sar_l	add_long_l	add_brev_l	add_mag1_l	add_mag2_l	add_mag3_l	tfl_l	pect_l	grac_l	glut_max1_l	glut_max2_l	glut_max3_l	iliacus_l	psoas_l	quad_fem_l	gem_l	peri_l	rect_fem_l	vas_med_l	vas_int_l	vas_lat_l	med_gas_l	lat_gas_l	soleus_l	tib_post_l	flex_dig_l	flex_hal_l	tib_ant_l	per_brev_l	per_long_l	per_tert_l	ext_dig_l	ext_hal_l	ercspn_r	ercspn_l	intobl_r	intobl_l	extobl_r	extobl_l	femur_lat_meniscii_r.femur_lat_r.force.X	femur_lat_meniscii_r.femur_lat_r.force.Y	femur_lat_meniscii_r.femur_lat_r.force.Z	femur_lat_meniscii_r.femur_lat_r.torque.X	femur_lat_meniscii_r.femur_lat_r.torque.Y	femur_lat_meniscii_r.femur_lat_r.torque.Z	femur_lat_meniscii_r.meniscus_lat_r.force.X	femur_lat_meniscii_r.meniscus_lat_r.force.Y	femur_lat_meniscii_r.meniscus_lat_r.force.Z	femur_lat_meniscii_r.meniscus_lat_r.torque.X	femur_lat_meniscii_r.meniscus_lat_r.torque.Y	femur_lat_meniscii_r.meniscus_lat_r.torque.Z	femur_med_meniscii_r.femur_med_r.force.X	femur_med_meniscii_r.femur_med_r.force.Y	femur_med_meniscii_r.femur_med_r.force.Z	femur_med_meniscii_r.femur_med_r.torque.X	femur_med_meniscii_r.femur_med_r.torque.Y	femur_med_meniscii_r.femur_med_r.torque.Z	femur_med_meniscii_r.meniscus_med_r.force.X	femur_med_meniscii_r.meniscus_med_r.force.Y	femur_med_meniscii_r.meniscus_med_r.force.Z	femur_med_meniscii_r.meniscus_med_r.torque.X	femur_med_meniscii_r.meniscus_med_r.torque.Y	femur_med_meniscii_r.meniscus_med_r.torque.Z	femur_med_tibia_r.tibia_upper_r.force.X	femur_med_tibia_r.tibia_upper_r.force.Y	femur_med_tibia_r.tibia_upper_r.force.Z	femur_med_tibia_r.tibia_upper_r.torque.X	femur_med_tibia_r.tibia_upper_r.torque.Y	femur_med_tibia_r.tibia_upper_r.torque.Z	femur_med_tibia_r.femur_med_r.force.X	femur_med_tibia_r.femur_med_r.force.Y	femur_med_tibia_r.femur_med_r.force.Z	femur_med_tibia_r.femur_med_r.torque.X	femur_med_tibia_r.femur_med_r.torque.Y	femur_med_tibia_r.femur_med_r.torque.Z	femur_lat_tibia_r.tibia_upper_r.force.X	femur_lat_tibia_r.tibia_upper_r.force.Y	femur_lat_tibia_r.tibia_upper_r.force.Z	femur_lat_tibia_r.tibia_upper_r.torque.X	femur_lat_tibia_r.tibia_upper_r.torque.Y	femur_lat_tibia_r.tibia_upper_r.torque.Z	femur_lat_tibia_r.femur_lat_r.force.X	femur_lat_tibia_r.femur_lat_r.force.Y	femur_lat_tibia_r.femur_lat_r.force.Z	femur_lat_tibia_r.femur_lat_r.torque.X	femur_lat_tibia_r.femur_lat_r.torque.Y	femur_lat_tibia_r.femur_lat_r.torque.Z	aACL_R	pACL_R	aPCL_R	pPCL_R	aMCL_R	mMCL_R	pMCL_R	aLCL_R	mLCL_R	pLCL_R	ground_prescribedForce_fx	ground_prescribedForce_fy	ground_prescribedForce_fz	ground_prescribedForce_px	ground_prescribedForce_py	ground_prescribedForce_pz
      0.19348690	     10.22506118	      7.49707181	      8.05297219	      3.47691123	      4.06769159	      4.32220760	      5.89826270	      5.36609078	      8.05138903	      8.83064989	      1.97353085	      7.45218986	      5.40161798	      3.85553609	      3.26275041	      5.45181163	      4.96340207	      2.93266393	      1.98646814	      4.83901139	      7.35948113	      5.52096447	     25.98708580	     16.75110921	      4.77037522	      3.39911982	      6.04240225	     16.58985406	     13.59990435	     14.30283979	     19.06733184	      2.85454320	      1.65679484	     10.85722047	     24.53123508	      1.97602663	      3.30343024	     18.21946205	      3.04190049	      8.47518297	      7.08093825	     10.34713001	      3.30423368	     10.22506118	      7.49707181	      8.05297219	      3.47691123	      4.06769159	      4.32220760	     12.53223248	      5.51654739	     10.87312471	      9.49373983	      1.98479904	      7.45218986	      5.40161798	      3.85553609	      3.26275041	      5.45181163	      5.00429583	      2.93266393	      2.04525332	      4.83901139	      7.35948113	      5.52096447	     25.98708580	     16.75110921	      4.77037522	      3.39911982	      6.04240225	     15.02506885	      8.78662514	     10.13289399	     10.88419615	     21.46383288	      9.97164782	     45.94945603	     48.46891450	      4.32855752	      4.38774546	     11.75812136	      6.24803283	     16.64832741	      2.59083938	      7.80546879	      2.45065337	     32.71947780	     32.71947780	     12.05486070	     12.05486070	     29.55400084	     29.55400084	    148.35278437	    143.38431899	     44.72567830	    -21.91732512	      3.65088744	     61.01264806	   -148.35278437	   -143.38431899	    -44.72567830	      5.08623445	     -4.42659426	     -2.69797384	     56.86030155	     38.73612949	      9.21047107	     -2.90930166	     -1.26828674	     23.32731316	    -56.86030155	    -38.73612949	     -9.21047107	     -0.53646643	      1.05054340	     -1.13931156	    -21.25078751	    -36.41974902	      8.59854887	     -0.85584780	      0.38999791	     -0.46204129	     21.25078751	     36.41974902	     -8.59854887	      4.23269620	     -0.35059033	      8.97462907	      0.00000000	      0.00000000	      0.00000000	      0.00000000	      0.00000000	      0.00000000	      0.00000000	      0.00000000	      0.00000000	      0.00000000	      0.00000000	      0.00000000	     60.95142944	     41.68948739	     95.78777752	     59.68949035	      0.00000000	      0.00000000	      0.00000000	      1.39238229	      0.00000000	      0.00000000	     95.26279000	    -55.00000000	      0.00000000	      0.03000000	     -0.03000000	      0.00000000
      0.19616659	     10.13220006	      7.43385144	      7.98423276	      3.44881373	      4.03704292	      4.28304473	      5.81621528	      5.29818618	      8.03980143	      8.76125522	      1.94283558	      7.38861304	      5.35837140	      3.82319461	      3.23473339	      5.40099447	      4.96097435	      2.90879997	      1.95807097	      4.79809885	      7.29710170	      5.47339300	     25.87116594	     16.61911991	      4.73098062	      3.38007622	      5.97809701	     16.43121194	     13.38232743	     14.12985959	     18.93040049	      2.79062018	      1.63798928	     10.70684334	     24.94754686	      2.07288047	      3.27731588	     18.06034130	      2.97699946	      8.24847218	      7.12642673	     10.19088920	      3.24984035	     10.13220006	      7.43385144	      7.98423276	      3.44881373	      4.03704292	      4.28304473	     12.40377225	      5.46684669	     10.76401479	      9.41526094	      1.96883423	      7.38861304	      5.35837140	      3.82319461	      3.23473339	      5.40099447	      4.97279612	      2.90879997	      2.02851262	      4.79809885	      7.29710170	      5.47339300	     25.87116594	     16.61911991	      4.73098062	      3.38007622	      5.97809701	     14.87563925	      8.71044430	     10.04351689	     10.78837672	     21.22829407	      9.86203523	     45.45905948	     48.26099676	      4.27511357	      4.33749228	     11.64406214	      6.18333944	     16.51029086	      2.57048438	      7.72045998	      2.42418520	     32.45446702	     32.45446702	     11.94905549	     11.94905549	     29.45848179	     29.45848179	    142.83424076	    138.03646145	     43.13420479	    -21.13148805	      3.51469330	     58.74342612	   -142.83424076	   -138.03646145	    -43.13420479	      4.89853964	     -4.26225296	     -2.59746579	     56.84720896	     38.66443164	      9.22258674	     -2.91522081	     -1.26881816	     23.32179597	    -56.84720896	    -38.66443164	     -9.22258674	     -0.53540725	      1.05101638	     -1.13932566	    -21.19249454	    -36.32983346	      8.56857068	     -0.85365723	      0.38904063	     -0.46059401	     21.19249454	     36.32983346	     -8.56857068	      4.21878294	     -0.34975086	      8.95008448	      0.00000000	      0.00000000	      0.00000000	      0.00000000	      0.00000000	      0.00000000	      0.00000000	      0.00000000	      0.00000000	      0.00000000	      0.00000000	      0.00000000	     61.44083710	     42.22720183	     96.01414015	     60.91804868	      0.00000000	      0.00000000	      0.00000000	      3.31261101	      0.00000000	      0.00000000	     95.26279000	    -55.00000000	      0.00000000	      0.03000000	     -0.03000000	      0.00000000
      0.19857442	     10.05154961	      7.37893282	      7.92452466	      3.42439887	      4.01041756	      4.24903096	      5.76123610	      5.24962085	      8.04321455	      8.78027918	      1.93519464	      7.33338929	      5.32078949	      3.79510071	      3.21039984	      5.35685890	      4.96633315	      2.88806524	      1.94442860	      4.76256303	      7.24292021	      5.43207594	     25.77050372	     16.50452369	      4.69675491	      3.36354498	      5.92212983	     16.31562960	     13.24015247	     14.02916677	     18.85499931	      2.77801353	      1.63796826	     10.61861018	     25.20255734	      2.16943888	      3.26876401	     17.88896622	      2.93865262	      8.08467081	      7.18794982	     10.04746558	      3.19392094	     10.05154961	      7.37893282	      7.92452466	      3.42439887	      4.01041756	      4.24903096	     12.29207287	      5.42368109	     10.66917829	      9.34708041	      1.95496131	      7.33338929	      5.32078949	      3.79510071	      3.21039984	      5.35685890	      4.94543904	      2.88806524	      2.01396751	      4.76256303	      7.24292021	      5.43207594	     25.77050372	     16.50452369	      4.69675491	      3.36354498	      5.92212983	     14.74577405	      8.64429019	      9.96590758	     10.70518041	     21.02303181	      9.76651739	     45.03227526	     48.08031854	      4.22869843	      4.29387891	     11.54496594	      6.12708538	     16.39020082	      2.55280998	      7.64632951	      2.40110970	     32.22419427	     32.22419427	     11.85715914	     11.85715914	     29.37554126	     29.37554126	    145.54831554	    140.41970700	     43.83943322	    -21.47958688	      3.58040952	     59.86163761	   -145.54831554	   -140.41970700	    -43.83943322	      4.98117930	     -4.34084803	     -2.65067933	     58.90473500	     39.91435604	      9.49510723	     -2.99869805	     -1.31466289	     24.16443643	    -58.90473500	    -39.91435604	     -9.49510723	     -0.55374431	      1.08967470	     -1.18039537	    -21.39940975	    -36.66509648	      8.64852648	     -0.86157413	      0.39283765	     -0.46514169	     21.39940975	     36.66509648	     -8.64852648	      4.25805711	     -0.35315754	      9.03742351	      0.00000000	      0.00000000	      0.00000000	      0.00000000	      0.00000000	      0.00000000	      0.00000000	      0.00000000	      0.00000000	      0.00000000	      0.00000000	      0.00000000	     61.28170177	     42.07063066	     95.55451112	     59.63241189	      0.00000000	      0.00000000	      0.00000000	      2.31088091	      0.00000000	      0.00000000	     95.26279000	    -55.00000000	      0.00000000	      0.03000000	     -0.03000000	      0.00000000
      0.20098226	      9.97345143	      7.32574170	      7.86669908	      3.40074589	      3.98462853	      4.21609307	      5.69569916	      5.19517632	      8.03310222	      8.72969766	      1.91329149	      7.27990672	      5.28437857	      3.76789109	      3.18683571	      5.31411967	      4.96695269	      2.86797875	      1.92348786	      4.72814883	      7.19044895	      5.39206535	     25.67303965	     16.39358744	      4.66360202	      3.34754422	      5.86782597	     16.18347208	     13.06768760	     13.89028793	     18.73538487	      2.73663293	      1.62388990	     10.50939671	     25.32864447	      2.27234890	      3.27013534	     17.73471081	      2.91799434	      7.95520549	      7.27804385	      9.89787266	      3.13678958	      9.97345143	      7.32574170	      7.86669908	      3.40074589	      3.98462853	      4.21609307	     12.18379003	      5.38188126	     10.57727635	      9.28103818	      1.94152090	      7.27990672	      5.28437857	      3.76789109	      3.18683571	      5.31411967	      4.91894825	      2.86797875	      1.99987751	      4.72814883	      7.19044895	      5.39206535	     25.67303965	     16.39358744	      4.66360202	      3.34754422	      5.86782597	     14.61994224	      8.58023768	      9.89076769	     10.62463758	     20.82362379	      9.67372821	     44.61819858	     47.90526332	      4.18375614	      4.25167664	     11.44897436	      6.07255006	     16.27372095	      2.53569848	      7.57427151	      2.37868501	     32.00111037	     32.00111037	     11.76816720	     11.76816720	     29.29524113	     29.29524113	    142.17032097	    137.13576888	     42.89495883	    -21.01060336	      3.49715086	     58.47254829	   -142.17032097	   -137.13576888	    -42.89495883	      4.86672041	     -4.24047499	     -2.58912021	     59.47596715	     40.29411093	      9.63562297	     -3.04712774	     -1.32845291	     24.39869561	    -59.47596715	    -40.29411093	     -9.63562297	     -0.55844809	      1.10089786	     -1.19166082	    -21.45378042	    -36.78789892	      8.65851588	     -0.86401151	      0.39388456	     -0.46596671	     21.45378042	     36.78789892	     -8.65851588	      4.26453213	     -0.35416078	      9.06043923	      0.00000000	      0.00000000	      0.00000000	      0.00000000	      0.00000000	      0.00000000	      0.00000000	      0.00000000	      0.00000000	      0.00000000	      0.00000000	      0.00000000	     61.58425488	     42.41267510	     95.65997034	     60.21604401	      0.00000000	      0.00000000	      0.00000000	      3.33358515	      0.00000000	      0.00000000	     95.26279000	    -55.00000000	      0.00000000	      0.03000000	     -0.03000000	      0.00000000
